<svg width="159" height="114" viewBox="0 0 159 114" fill="none" xmlns="http://www.w3.org/2000/svg">
<g clip-path="url(#clip0_4550_28778)">
<path fill-rule="evenodd" clip-rule="evenodd" d="M99.3398 85.798L99.6829 105.041H115.84V94.0008H116.476L118.966 105.041H134.638L131.067 81.6941L99.3398 85.798Z" fill="white"/>
<path fill-rule="evenodd" clip-rule="evenodd" d="M99.3121 85.5383C99.1816 85.5594 99.0859 85.6688 99.0859 85.7981L99.4215 105.041C99.429 105.185 99.5383 105.295 99.6813 105.295H115.84C115.983 105.295 116.099 105.178 116.099 105.041V94.2606H116.271L118.713 105.096C118.74 105.213 118.842 105.295 118.965 105.295H134.638C134.714 105.295 134.788 105.26 134.837 105.205C134.884 105.15 134.905 105.076 134.891 105L131.327 81.6531C131.299 81.5164 131.176 81.4207 131.04 81.4344L99.3121 85.5383ZM99.6067 86.0243C99.6067 86.0243 127.893 82.3641 130.854 81.9813C130.854 81.9813 133.926 102.093 134.337 104.781H119.17L116.728 93.9462C116.715 93.8892 116.683 93.8384 116.637 93.8023C116.591 93.7661 116.534 93.7467 116.476 93.7473H115.84C115.695 93.7473 115.586 93.8567 115.586 94.0009V104.781H99.9348L99.6067 86.0243Z" fill="#181214"/>
<path fill-rule="evenodd" clip-rule="evenodd" d="M90.2403 13.5915C90.2403 11.7851 88.7725 10.3176 86.9666 10.3176H22.1039C20.2975 10.3176 18.8301 11.7851 18.8301 13.5915V91.6718C18.8301 93.4776 20.2975 94.9455 22.1039 94.9455H86.9666C88.7725 94.9455 90.2403 93.4776 90.2403 91.6718V13.5915Z" fill="white"/>
<path fill-rule="evenodd" clip-rule="evenodd" d="M90.4999 13.5914C90.4999 11.642 88.9153 10.0632 86.9665 10.0632H22.1037C20.1542 10.0632 18.5703 11.642 18.5703 13.5914V91.6717C18.5703 93.6205 20.1542 95.1989 22.1037 95.1989H86.9665C88.9153 95.1989 90.4999 93.6205 90.4999 91.6717V13.5914ZM89.9854 13.5914V91.6717C89.9854 93.3346 88.6344 94.6856 86.9665 94.6856H22.1037C20.4403 94.6856 19.0895 93.3346 19.0895 91.6717V13.5914C19.0895 11.9281 20.4403 10.5772 22.1037 10.5772H86.9665C88.6344 10.5772 89.9854 11.9281 89.9854 13.5914Z" fill="#CBCBCB"/>
<path fill-rule="evenodd" clip-rule="evenodd" d="M94.6657 42.9023C94.6657 42.1343 94.3587 41.398 93.8181 40.8523C93.2725 40.312 92.5367 40.0046 91.7686 40.0046H17.2961C16.5279 40.0046 15.7917 40.312 15.2461 40.8523C14.7057 41.398 14.3984 42.1343 14.3984 42.9023V62.3702C14.3984 63.1383 14.7057 63.8753 15.2461 64.4209C15.7917 64.9616 16.5279 65.2686 17.2961 65.2686H91.7686C92.5367 65.2686 93.2725 64.9616 93.8181 64.4209C94.3587 63.8753 94.6657 63.1383 94.6657 62.3702V42.9023Z" fill="#7D7D7D"/>
<path fill-rule="evenodd" clip-rule="evenodd" d="M36.6809 45.9526C36.6809 45.5993 36.6113 45.2495 36.476 44.9231C36.3407 44.5968 36.1424 44.3003 35.8924 44.0507C35.3888 43.5469 34.7061 43.262 33.9969 43.262H20.4974C20.1441 43.262 19.7943 43.3317 19.4679 43.467C19.1416 43.6023 18.8451 43.8007 18.5955 44.0507C18.3454 44.3003 18.1471 44.5968 18.0117 44.9231C17.8764 45.2495 17.8067 45.5993 17.8066 45.9526V59.4521C17.8066 60.1618 18.0917 60.8441 18.5955 61.3474C18.8451 61.5974 19.1416 61.7958 19.4679 61.9312C19.7943 62.0666 20.1441 62.1364 20.4974 62.1366H33.9969C34.7061 62.1366 35.3888 61.8508 35.8924 61.3474C36.3961 60.8441 36.6809 60.1618 36.6809 59.4521V45.9526Z" fill="white"/>
<path fill-rule="evenodd" clip-rule="evenodd" d="M36.5062 20.2173C36.5062 19.6722 36.2892 19.1522 35.9055 18.7685C35.5229 18.3849 35.0036 18.1688 34.4617 18.1677H24.1785C23.6333 18.1677 23.1134 18.3848 22.7297 18.7685C22.5393 18.9587 22.3882 19.1845 22.2851 19.4331C22.182 19.6817 22.1289 19.9482 22.1289 20.2173V30.5005C22.1289 31.0407 22.346 31.5607 22.7297 31.9444C22.9199 32.1348 23.1457 32.2858 23.3943 32.3889C23.6429 32.492 23.9094 32.545 24.1785 32.545H34.4617C35.0019 32.545 35.5219 32.328 35.9055 31.9444C36.2891 31.5617 36.5052 31.0424 36.5062 30.5005V20.2173ZM36.5062 74.5279C36.5062 73.9823 36.2892 73.4628 35.9055 73.0787C35.5219 72.6959 35.0019 72.4785 34.4617 72.4785H24.1785C23.6333 72.4785 23.1134 72.6959 22.7297 73.0787C22.5393 73.269 22.3882 73.4949 22.2851 73.7435C22.182 73.9922 22.1289 74.2587 22.1289 74.5279V84.8113C22.1289 85.3519 22.346 85.8714 22.7297 86.2555C23.114 86.6396 23.6351 86.8555 24.1785 86.8557H34.4617C35.0019 86.8557 35.5219 86.6383 35.9055 86.2555C36.2892 85.8726 36.5052 85.3532 36.5062 84.8113V74.5279Z" fill="#CBCBCB"/>
<path fill-rule="evenodd" clip-rule="evenodd" d="M21.7046 52.778L25.5824 56.6595C25.8864 56.9602 26.3737 56.9602 26.6736 56.6595L33.4711 49.8624C33.5434 49.7911 33.6007 49.7061 33.6398 49.6125C33.679 49.5188 33.6991 49.4183 33.6991 49.3168C33.6991 49.2153 33.679 49.1148 33.6398 49.0212C33.6007 48.9275 33.5434 48.8425 33.4711 48.7712C33.3998 48.699 33.3148 48.6416 33.2212 48.6025C33.1275 48.5634 33.027 48.5432 32.9255 48.5432C32.824 48.5432 32.7235 48.5634 32.6299 48.6025C32.5362 48.6416 32.4512 48.699 32.3799 48.7712L26.1279 55.0231L22.7958 51.6868C22.4918 51.3869 22.0045 51.3869 21.7046 51.6868C21.6323 51.7581 21.575 51.8431 21.5359 51.9368C21.4967 52.0304 21.4766 52.1309 21.4766 52.2324C21.4766 52.3339 21.4967 52.4344 21.5359 52.5281C21.575 52.6217 21.6323 52.7067 21.7046 52.778Z" fill="#181214"/>
<path fill-rule="evenodd" clip-rule="evenodd" d="M24.984 25.5497L27.9377 28.5066C28.0825 28.6514 28.2788 28.7327 28.4835 28.7327C28.6881 28.7327 28.8844 28.6514 29.0292 28.5066L34.2072 23.3287C34.35 23.1836 34.4298 22.9878 34.429 22.7842C34.4282 22.5805 34.3469 22.3854 34.2029 22.2414C34.0589 22.0974 33.8638 22.0162 33.6602 22.0154C33.4565 22.0146 33.2608 22.0943 33.1157 22.2372L28.4833 26.8696L26.0753 24.4582C26.0036 24.3865 25.9186 24.3297 25.8249 24.2909C25.7313 24.2521 25.631 24.2322 25.5296 24.2322C25.4283 24.2322 25.3279 24.2521 25.2343 24.2909C25.1407 24.3297 25.0556 24.3865 24.984 24.4582C24.9123 24.5298 24.8554 24.6149 24.8166 24.7086C24.7778 24.8022 24.7578 24.9026 24.7578 25.0039C24.7578 25.1053 24.7778 25.2056 24.8166 25.2993C24.8554 25.3929 24.9123 25.478 24.984 25.5497ZM24.984 79.8609L27.9377 82.8176C28.0826 82.9621 28.2789 83.0432 28.4835 83.0432C28.6881 83.0432 28.8843 82.9621 29.0292 82.8176L34.2072 77.6399C34.3519 77.4949 34.4332 77.2985 34.4332 77.0937C34.4332 76.8888 34.3519 76.6924 34.2072 76.5474C34.0623 76.403 33.866 76.3218 33.6614 76.3218C33.4568 76.3218 33.2606 76.403 33.1157 76.5474L28.4833 81.1808L26.0753 78.7684C25.9304 78.624 25.7342 78.5428 25.5296 78.5428C25.325 78.5428 25.1288 78.624 24.984 78.7684C24.8392 78.9133 24.7578 79.1098 24.7578 79.3146C24.7578 79.5195 24.8392 79.716 24.984 79.8609Z" fill="white"/>
<path fill-rule="evenodd" clip-rule="evenodd" d="M57.099 22.6894C57.0991 22.6003 57.0815 22.5121 57.0473 22.4299C57.0132 22.3476 56.9631 22.2729 56.9 22.2101C56.8368 22.1472 56.7619 22.0975 56.6795 22.0637C56.5971 22.0299 56.5088 22.0127 56.4197 22.0132H41.4798C41.1093 22.0132 40.8066 22.3146 40.8066 22.6894C40.8066 23.06 41.1093 23.3655 41.4798 23.3655H56.4197C56.7964 23.3655 57.099 23.06 57.099 22.6894ZM57.099 77.0011C57.099 76.627 56.7964 76.325 56.4197 76.325H41.4798C41.1093 76.325 40.8066 76.627 40.8066 77.0011C40.8066 77.3727 41.1093 77.6772 41.4798 77.6772H56.4197C56.7964 77.6772 57.099 77.3727 57.099 77.0011Z" fill="#CBCBCB"/>
<path fill-rule="evenodd" clip-rule="evenodd" d="M63.2786 50.0544C63.2786 49.5773 62.8905 49.1936 62.4118 49.1936H42.3605C41.8818 49.1936 41.502 49.5773 41.502 50.0544C41.502 50.5263 41.8818 50.9152 42.3605 50.9152H62.4118C62.8905 50.9152 63.2786 50.5263 63.2786 50.0544Z" fill="white"/>
<path fill-rule="evenodd" clip-rule="evenodd" d="M68.2628 26.9509C68.263 26.862 68.2456 26.774 68.2117 26.6918C68.1778 26.6097 68.1279 26.5351 68.0651 26.4722C68.0022 26.4094 67.9276 26.3596 67.8454 26.3257C67.7633 26.2918 67.6752 26.2744 67.5863 26.2747H41.4832C41.3944 26.2744 41.3063 26.2918 41.2241 26.3257C41.142 26.3596 41.0673 26.4094 41.0044 26.4722C40.9416 26.535 40.8917 26.6097 40.8578 26.6918C40.8238 26.774 40.8065 26.862 40.8066 26.9509C40.807 27.1302 40.8784 27.302 41.0052 27.4288C41.1321 27.5555 41.304 27.6268 41.4832 27.627H67.5863C67.7656 27.6268 67.9375 27.5555 68.0643 27.4288C68.1911 27.302 68.2625 27.1302 68.2628 26.9509ZM68.2628 81.2629C68.2628 80.8875 67.9609 80.5868 67.5863 80.5868H41.4832C41.3944 80.5865 41.3063 80.6038 41.2241 80.6376C41.1419 80.6715 41.0673 80.7213 41.0044 80.7841C40.9415 80.847 40.8917 80.9216 40.8577 81.0038C40.8238 81.0859 40.8064 81.174 40.8066 81.2629C40.8066 81.6332 41.1085 81.939 41.4832 81.939H67.5863C67.9609 81.939 68.2628 81.6332 68.2628 81.2629Z" fill="#CBCBCB"/>
<path fill-rule="evenodd" clip-rule="evenodd" d="M78.1883 55.4775C78.1883 55.2488 78.0908 55.0259 77.9378 54.865C77.7733 54.7065 77.5541 54.6174 77.3256 54.6162H42.3529C42.1165 54.6162 41.8938 54.7043 41.7408 54.865C41.5739 55.0259 41.4902 55.2488 41.4902 55.4775C41.4902 55.7049 41.5739 55.9224 41.7408 56.084C41.8938 56.2443 42.1165 56.3376 42.3529 56.3376H77.3256C77.5482 56.3376 77.7708 56.2443 77.9378 56.084C78.0908 55.9224 78.1883 55.7049 78.1883 55.4775Z" fill="white"/>
<path fill-rule="evenodd" clip-rule="evenodd" d="M111.653 86.1275C114.143 86.2369 116.578 86.1201 118.932 85.6279L116.305 45.3086L107.932 47.3266L111.653 86.1275Z" fill="#313233"/>
<path fill-rule="evenodd" clip-rule="evenodd" d="M94.3535 47.9558C94.3535 47.9558 95.4684 47.3264 96.2004 46.9912L103.957 47.9558L109.677 48.5647C111.161 59.9753 112.057 74.6272 112.371 88.8629C108.027 89.7117 102.37 89.9305 97.9988 89.1226C97.2941 88.9859 96.7746 88.3632 96.7746 87.6386L96.6652 72.3429L94.3535 47.9558Z" fill="white"/>
<path fill-rule="evenodd" clip-rule="evenodd" d="M94.2218 47.7301C94.1336 47.7779 94.0851 47.8806 94.0925 47.9763C94.0925 47.9763 96.3496 71.7612 96.4117 72.3566C96.4117 72.7605 96.4863 83.8902 96.5136 87.6461C96.5211 88.4875 97.1226 89.2121 97.9503 89.3761C102.356 90.184 108.047 89.9715 112.418 89.1164C112.541 89.089 112.63 88.9797 112.63 88.8566C112.309 74.6073 111.419 59.9541 109.935 48.5305C109.914 48.4141 109.826 48.3253 109.703 48.3116L103.983 47.6959L96.2327 46.7382C96.1855 46.7313 96.137 46.7382 96.0898 46.7587C95.3503 47.0939 94.2218 47.7301 94.2218 47.7301ZM94.6183 48.0996C94.934 47.9286 95.6797 47.518 96.2402 47.258L103.922 48.2089H103.928L109.449 48.7972C110.906 60.1182 111.789 74.5726 112.11 88.6516C107.821 89.4582 102.321 89.657 98.046 88.8703C97.4582 88.7535 97.0331 88.2402 97.0269 87.6386C96.9996 83.8218 96.9238 72.3367 96.9238 72.3367V72.3155L94.6183 48.0996Z" fill="#181214"/>
<path fill-rule="evenodd" clip-rule="evenodd" d="M114.447 47.4352L118.695 87.8773C118.695 87.8773 127.992 89.0816 133.212 86.3113C133.807 85.9894 134.143 85.3332 134.046 84.6558C133.315 79.3812 130.01 55.8155 130.01 55.8155L129.86 44.2064L125.809 42.0105L114.447 47.4352Z" fill="white"/>
<path fill-rule="evenodd" clip-rule="evenodd" d="M114.338 47.2096C114.242 47.2506 114.181 47.3601 114.195 47.4626L118.443 87.9046C118.449 88.0214 118.545 88.1171 118.662 88.1308C118.662 88.1308 128.06 89.3351 133.329 86.5362C134.026 86.1671 134.416 85.4015 134.306 84.621C133.581 79.4296 130.366 56.4853 130.27 55.7943L130.12 44.2065C130.12 44.1108 130.065 44.0286 129.983 43.9806L125.934 41.7849C125.865 41.7438 125.776 41.7439 125.701 41.7781L114.338 47.2096ZM114.728 47.5926C116.028 46.9702 124.688 42.8315 125.803 42.2979L129.606 44.3638L129.751 55.8154C129.751 55.8291 129.751 55.8353 129.757 55.849C129.757 55.849 133.061 79.4159 133.794 84.6968C133.876 85.2573 133.588 85.8116 133.089 86.0851C128.382 88.582 120.304 87.8027 118.929 87.6448L114.728 47.5926ZM107.869 49.3507C107.869 49.3507 108.555 57.1465 108.794 59.9405C108.816 60.1952 108.749 60.4401 108.607 60.6327C108.465 60.8167 108.264 60.9223 108.048 60.9223C107.682 60.9223 107.369 60.5979 107.325 60.1604C107.056 57.4883 106.184 48.7901 106.184 48.7901L107.869 49.3507Z" fill="#181214"/>
<path fill-rule="evenodd" clip-rule="evenodd" d="M118.393 47.0078C118.393 47.0078 119.161 55.8466 119.422 58.8419C119.445 59.0954 119.378 59.3415 119.236 59.5341C119.094 59.7181 118.893 59.8225 118.677 59.8225C118.311 59.8225 117.998 59.4981 117.953 59.0606C117.685 56.3885 116.812 47.691 116.812 47.691L118.393 47.0078Z" fill="#181214"/>
<path fill-rule="evenodd" clip-rule="evenodd" d="M102.78 36.3541C102.78 36.3541 98.1966 36.7988 98.4775 42.4218C98.4775 42.4218 96.0142 42.8938 96.131 46.9504C104.011 52.2997 116.769 50.8427 125.067 42.9417C125.067 42.9417 125.881 42.6408 127.824 43.0375C127.824 43.0375 127.632 37.7085 124.437 37.6743C124.437 37.6743 122.926 31.7366 115.312 33.953L102.78 36.3541Z" fill="#313233"/>
<path fill-rule="evenodd" clip-rule="evenodd" d="M110.75 50.0507C110.75 50.0507 112.071 49.958 113.683 49.4576C113.818 49.4145 113.893 49.2662 113.849 49.1302C113.839 49.0981 113.823 49.0682 113.802 49.0424C113.78 49.0165 113.754 48.9953 113.724 48.9797C113.694 48.9642 113.661 48.9548 113.628 48.952C113.594 48.9493 113.561 48.9532 113.529 48.9636C111.985 49.4515 110.719 49.538 110.719 49.538C110.577 49.5442 110.465 49.6676 110.478 49.8097C110.49 49.9516 110.607 50.0568 110.75 50.0507Z" fill="#181214"/>
<path fill-rule="evenodd" clip-rule="evenodd" d="M129.856 44.207C129.856 44.207 124.192 45.5341 124.589 56.8757C124.684 59.5503 124.945 62.7245 124.945 62.7245L120.588 62.2734H112.721L108.623 71.4257C108.623 71.4257 124.405 76.6457 133.297 73.9711C136.267 73.0812 137.142 69.5453 136.458 63.8257C135.773 58.1148 133.783 47.9969 129.856 44.207Z" fill="white"/>
<path fill-rule="evenodd" clip-rule="evenodd" d="M130.04 44.0225C129.972 43.9608 129.882 43.9335 129.8 43.954C129.8 43.954 123.924 45.2811 124.328 56.8832C124.404 59.0657 124.595 61.5763 124.664 62.4375L120.614 62.02H112.72C112.617 62.02 112.521 62.0746 112.48 62.1703L108.39 71.3165C108.362 71.3848 108.362 71.4606 108.39 71.529C108.417 71.5974 108.478 71.6446 108.546 71.6657C108.546 71.6657 124.424 76.913 133.372 74.2173C134.938 73.745 135.957 72.5892 136.491 70.7833C137.004 69.0458 137.058 66.6993 136.717 63.7985C136.307 60.3583 135.417 55.3164 133.925 51.0205C132.92 48.12 131.633 45.5548 130.04 44.0225ZM129.787 44.4945C131.285 45.9995 132.482 48.4416 133.441 51.1847C134.918 55.4532 135.793 60.4465 136.203 63.8606C136.539 66.6719 136.498 68.9501 135.998 70.6329C135.52 72.2536 134.624 73.3075 133.221 73.7251C125.067 76.181 111.092 71.9391 108.978 71.2693L112.884 62.5333H120.573L124.923 62.9782C124.999 62.9919 125.074 62.9645 125.128 62.9098C125.155 62.8832 125.176 62.851 125.189 62.8156C125.202 62.7802 125.207 62.7424 125.204 62.7048C125.204 62.7048 124.937 59.5367 124.849 56.8696C124.492 46.8066 128.959 44.7817 129.787 44.4945Z" fill="#181214"/>
<path fill-rule="evenodd" clip-rule="evenodd" d="M124.899 62.983C124.899 62.983 126.696 63.2539 128.426 63.5945C129.421 63.7921 130.205 64.3787 130.81 65.1257C131.742 66.2803 132.249 67.8189 132.385 68.9549C132.389 68.9885 132.4 69.021 132.417 69.0504C132.434 69.0798 132.457 69.1056 132.483 69.1262C132.51 69.1469 132.541 69.162 132.574 69.1708C132.607 69.1796 132.641 69.1818 132.674 69.1774C132.708 69.1731 132.741 69.1621 132.77 69.1451C132.8 69.1281 132.826 69.1054 132.846 69.0784C132.867 69.0513 132.882 69.0205 132.891 68.9875C132.899 68.9546 132.902 68.9203 132.897 68.8865C132.749 67.6772 132.206 66.0404 131.212 64.805C130.532 63.9649 129.643 63.3099 128.525 63.0874C126.783 62.7481 124.98 62.4759 124.98 62.4759C124.838 62.4523 124.708 62.5505 124.683 62.6922C124.664 62.8289 124.764 62.9644 124.899 62.983ZM29.2309 105.295H138.863C139.005 105.295 139.121 105.18 139.121 105.041C139.121 104.897 139.005 104.781 138.863 104.781H29.2309C29.1969 104.781 29.1632 104.788 29.1318 104.801C29.1004 104.814 29.0718 104.833 29.0478 104.858C29.0239 104.882 29.0049 104.91 28.992 104.942C28.9791 104.973 28.9725 105.007 28.9727 105.041C28.9727 105.18 29.0882 105.295 29.2309 105.295Z" fill="#181214"/>
<path fill-rule="evenodd" clip-rule="evenodd" d="M7.31257 35.4917L11.4065 39.4869C11.5115 39.5864 11.6705 39.5865 11.7707 39.4807C11.87 39.3808 11.8708 39.2149 11.7648 39.1213L7.67101 35.126C7.56586 35.0267 7.4069 35.0265 7.3076 35.1264C7.20743 35.2323 7.20742 35.3924 7.31257 35.4917ZM13.3854 32.5703L14.4634 36.645C14.4979 36.7809 14.6454 36.8658 14.7802 36.8247C14.9161 36.7904 14.9953 36.6506 14.9608 36.5148L13.8828 32.4398C13.8419 32.3051 13.7008 32.2194 13.5661 32.2603C13.4303 32.2947 13.3445 32.4355 13.3854 32.5703ZM6.15896 43.6684L10.7223 43.3096C10.8618 43.2964 10.968 43.17 10.9615 43.0305C10.9482 42.8911 10.822 42.7848 10.6826 42.7914L6.11919 43.1568C6.0853 43.1581 6.05202 43.1663 6.0214 43.1809C5.99077 43.1954 5.96343 43.2161 5.94105 43.2416C5.91866 43.267 5.9017 43.2968 5.8912 43.3291C5.88069 43.3613 5.87686 43.3954 5.87994 43.4291C5.89324 43.5753 6.0128 43.6817 6.15896 43.6684Z" fill="#313233"/>
<path fill-rule="evenodd" clip-rule="evenodd" d="M13.9883 75.7049L8.83908 80.864C8.81519 80.8875 8.79623 80.9156 8.78328 80.9465C8.77034 80.9775 8.76367 81.0107 8.76367 81.0442C8.76367 81.0777 8.77034 81.111 8.78328 81.1419C8.79623 81.1728 8.81519 81.2009 8.83908 81.2244C8.93975 81.3251 9.10406 81.3251 9.20473 81.2244L14.3539 76.0703C14.4544 75.9697 14.4544 75.8056 14.3539 75.7049C14.3053 75.6566 14.2396 75.6294 14.1711 75.6294C14.1026 75.6294 14.0369 75.6566 13.9883 75.7049ZM84.2437 98.9201C83.4582 98.9201 82.8269 99.5577 82.8269 100.336C82.8269 101.12 83.4582 101.759 84.2437 101.759C85.0279 101.759 85.6593 101.12 85.6593 100.336C85.6593 99.5577 85.0279 98.9201 84.2437 98.9201ZM84.2437 99.4384C84.7421 99.4384 85.1472 99.8436 85.1472 100.336C85.1472 100.834 84.7421 101.239 84.2437 101.239C83.7441 101.239 83.3389 100.834 83.3389 100.336C83.3389 99.8436 83.7441 99.4384 84.2437 99.4384Z" fill="#181214"/>
<path fill-rule="evenodd" clip-rule="evenodd" d="M81.3639 28.3786C80.1931 28.3786 79.2461 29.326 79.2461 30.4862C79.2461 31.6571 80.1931 32.6043 81.3639 32.6043C82.5347 32.6043 83.4817 31.6571 83.4817 30.4862C83.4817 29.326 82.5347 28.3786 81.3639 28.3786ZM81.3639 28.8895C82.2476 28.8895 82.961 29.6134 82.961 30.4862C82.961 31.3696 82.2476 32.0935 81.3639 32.0935C80.4802 32.0935 79.7681 31.3696 79.7681 30.4862C79.7681 29.6134 80.4802 28.8895 81.3639 28.8895ZM125.829 23.247C125.677 23.66 125.484 24.1794 125.366 24.4994C125.322 24.6167 125.229 24.7095 125.112 24.7528C124.793 24.8713 124.273 25.0634 123.859 25.2162C123.762 25.2523 123.678 25.3173 123.619 25.4025C123.56 25.4876 123.528 25.5889 123.528 25.6927C123.528 25.7964 123.56 25.8977 123.619 25.9828C123.678 26.0679 123.762 26.1329 123.859 26.1689C124.273 26.3217 124.793 26.5138 125.112 26.6324C125.17 26.654 125.223 26.6878 125.267 26.7315C125.31 26.7752 125.344 26.8279 125.366 26.8858C125.484 27.2057 125.677 27.7252 125.829 28.1381C125.865 28.2355 125.93 28.3195 126.015 28.3789C126.1 28.4382 126.202 28.47 126.305 28.47C126.409 28.47 126.51 28.4382 126.596 28.3789C126.681 28.3195 126.746 28.2355 126.781 28.1381C126.934 27.7252 127.127 27.2057 127.245 26.8858C127.288 26.7685 127.382 26.6758 127.499 26.6324C127.818 26.5138 128.337 26.3217 128.751 26.1689C128.849 26.1329 128.933 26.0679 128.992 25.9828C129.051 25.8977 129.083 25.7964 129.083 25.6927C129.083 25.4802 128.95 25.2901 128.751 25.2162C128.334 25.062 127.916 24.9076 127.499 24.7528C127.441 24.7313 127.388 24.6975 127.344 24.6537C127.3 24.61 127.267 24.5574 127.245 24.4994C127.127 24.1794 126.934 23.66 126.781 23.247C126.746 23.1497 126.681 23.0657 126.596 23.0063C126.51 22.947 126.409 22.9152 126.305 22.9153C126.202 22.9152 126.1 22.947 126.015 23.0063C125.93 23.0657 125.865 23.1497 125.829 23.247ZM126.305 23.4427L126.763 24.678C126.81 24.8056 126.884 24.9215 126.98 25.0177C127.076 25.114 127.192 25.1882 127.32 25.2354L128.555 25.6927L127.32 26.1498C127.192 26.197 127.076 26.2713 126.98 26.3675C126.884 26.4637 126.81 26.5796 126.763 26.7072L126.305 27.9425L125.848 26.7072C125.801 26.5797 125.727 26.4639 125.63 26.3677C125.534 26.2715 125.419 26.1972 125.291 26.1498L124.056 25.6927L125.291 25.2354C125.419 25.188 125.534 25.1137 125.63 25.0175C125.727 24.9213 125.801 24.8055 125.848 24.678L126.305 23.4427Z" fill="#313233"/>
<path fill-rule="evenodd" clip-rule="evenodd" d="M130.41 31.059C130.288 31.3894 130.134 31.8046 130.04 32.0603C130.025 32.0996 130.003 32.1354 129.973 32.1652C129.943 32.1949 129.908 32.2179 129.868 32.2325C129.612 32.3272 129.197 32.4809 128.867 32.6029C128.779 32.6353 128.703 32.6939 128.65 32.7707C128.597 32.8475 128.568 32.9388 128.568 33.0323C128.568 33.2236 128.686 33.3949 128.867 33.4615L129.868 33.832C129.948 33.8614 130.01 33.9242 130.04 34.0041C130.134 34.2597 130.288 34.6751 130.41 35.0055C130.443 35.0931 130.502 35.1687 130.579 35.2221C130.655 35.2755 130.747 35.3041 130.84 35.3042C131.032 35.3042 131.203 35.1849 131.269 35.0055C131.391 34.6751 131.545 34.2597 131.639 34.0041C131.669 33.9242 131.731 33.8614 131.812 33.832C132.067 33.7373 132.482 33.5836 132.813 33.4615C132.9 33.4291 132.976 33.3706 133.03 33.2939C133.083 33.2172 133.112 33.1259 133.112 33.0323C133.112 32.8408 132.993 32.6695 132.813 32.6029C132.482 32.4809 132.067 32.3272 131.812 32.2325C131.773 32.2181 131.737 32.1952 131.707 32.1654C131.677 32.1357 131.654 32.0998 131.639 32.0603C131.545 31.8046 131.391 31.3894 131.269 31.059C131.237 30.9713 131.178 30.8957 131.102 30.8422C131.025 30.7888 130.934 30.7602 130.84 30.7603C130.649 30.7603 130.477 30.8794 130.41 31.059ZM130.84 31.3822L131.157 32.239C131.197 32.3481 131.261 32.4472 131.343 32.5294C131.425 32.6117 131.524 32.675 131.633 32.7151L132.49 33.0323L131.633 33.3494C131.524 33.3894 131.425 33.4528 131.343 33.535C131.261 33.6172 131.197 33.7163 131.157 33.8254L130.84 34.6822L130.523 33.8254C130.483 33.7163 130.419 33.6173 130.337 33.5351C130.254 33.453 130.155 33.3896 130.046 33.3494L129.19 33.0323L130.046 32.7151C130.155 32.6749 130.254 32.6115 130.337 32.5293C130.419 32.4471 130.483 32.3481 130.523 32.239L130.84 31.3822Z" fill="#181214"/>
<path d="M46.0165 101.037C49.732 101.037 52.7439 98.0252 52.7439 94.3091C52.7439 90.5942 49.732 87.5815 46.0165 87.5815C42.301 87.5815 39.2891 90.5942 39.2891 94.3091C39.2891 98.0252 42.301 101.037 46.0165 101.037Z" fill="#181214"/>
<path fill-rule="evenodd" clip-rule="evenodd" d="M49.641 96.0828C49.6666 95.9933 49.6641 95.8963 49.6373 95.8044L49.418 95.0773C49.3816 94.9654 49.3099 94.8673 49.2125 94.8026C49.2448 94.6771 49.2397 94.5454 49.1926 94.4223C49.1257 94.2458 49.0192 93.9637 48.9446 93.7735C48.8934 93.6364 48.7957 93.5216 48.6685 93.4492C48.7072 93.2916 48.6932 93.1257 48.6287 92.9769C48.5751 92.8476 48.502 92.6823 48.439 92.5332C48.3692 92.3702 48.2439 92.2371 48.0854 92.1575C47.9269 92.0779 47.7454 92.0569 47.5729 92.0982L46.8293 92.2771C46.7971 91.9378 46.7241 91.3463 46.5634 90.6503C46.3732 89.8263 45.8989 89.6112 45.5355 89.5665C45.4479 89.556 45.359 89.565 45.2752 89.5927C45.1914 89.6204 45.1148 89.6662 45.0506 89.7268C44.9865 89.7881 44.9365 89.8627 44.9044 89.9454C44.8722 90.0281 44.8586 90.1168 44.8645 90.2053C45.1128 93.7151 43.6303 95.0823 42.9844 95.4986C42.8534 95.5822 42.7556 95.7089 42.708 95.8568C42.6603 96.0047 42.6657 96.1646 42.7233 96.309C42.9535 96.8894 43.4239 98.0639 43.6522 98.6393C43.7125 98.7889 43.8248 98.9118 43.9685 98.9853C44.1121 99.0588 44.2774 99.078 44.4341 99.0395C44.9549 98.9177 46.0151 98.6965 47.2804 98.561C48.8658 98.3957 49.6173 97.7072 49.8468 97.4598C49.8471 97.4574 49.8497 97.4561 49.8524 97.4536C49.9507 97.3368 49.9892 97.1802 49.9525 97.0323C49.9075 96.8546 49.8218 96.5004 49.7732 96.3127C49.7526 96.2248 49.7066 96.1448 49.641 96.0828ZM48.9268 95.2327L49.142 95.9523L49.0759 96.0803C49.0346 96.1611 49.0373 96.2555 49.0828 96.3326C49.1186 96.3922 49.1759 96.4333 49.2432 96.4507H49.2409L49.2804 96.4606L49.4464 97.133C49.226 97.3641 48.5641 97.9098 47.2263 98.0514C45.932 98.1882 44.8469 98.4156 44.3164 98.5386C44.314 98.5386 44.3138 98.5411 44.3114 98.5411C44.2751 98.5494 44.2369 98.5444 44.2039 98.5271C44.1709 98.5098 44.1452 98.4813 44.1313 98.4467C43.9006 97.8712 43.4326 96.6967 43.2022 96.12C43.1749 96.0492 43.199 95.9709 43.2616 95.9299C43.9669 95.4787 45.6497 94.0047 45.3795 90.168C45.3784 90.1555 45.38 90.1428 45.3844 90.131C45.3888 90.1192 45.3957 90.1085 45.4047 90.0997C45.4138 90.0915 45.4245 90.0855 45.4361 90.0818C45.4477 90.0782 45.4599 90.0771 45.472 90.0786C45.6915 90.1059 45.9475 90.265 46.0628 90.7659C46.3051 91.8098 46.3377 92.609 46.3377 92.609C46.3426 92.6861 46.3791 92.7581 46.4405 92.8041C46.5019 92.8501 46.5815 92.8663 46.6554 92.8501C46.6554 92.8501 47.2679 92.7022 47.6929 92.5991C47.8064 92.573 47.9215 92.6301 47.9659 92.7358L48.1554 93.1795C48.17 93.212 48.1768 93.2474 48.1753 93.283C48.1738 93.3186 48.1641 93.3534 48.1468 93.3845C48.1156 93.4429 48.0879 93.4914 48.0879 93.4914C48.0477 93.566 48.0486 93.6542 48.0871 93.7313C48.1255 93.8083 48.1984 93.8581 48.2834 93.868C48.2834 93.868 48.3188 93.873 48.366 93.8792C48.4108 93.8842 48.4477 93.9152 48.4644 93.955L48.7099 94.6038C48.7163 94.6203 48.7189 94.638 48.7175 94.6556C48.7162 94.6733 48.7109 94.6904 48.702 94.7057C48.6682 94.7666 48.637 94.825 48.637 94.825C48.5972 94.8946 48.5914 94.9804 48.6231 95.0537C48.6571 95.127 48.7199 95.1804 48.7991 95.2003L48.9268 95.2327Z" fill="white"/>
<path fill-rule="evenodd" clip-rule="evenodd" d="M106.557 42.5743C106.557 42.5743 101.763 41.859 103.484 38.0819L113.888 34.506C113.888 34.506 118.391 34.1246 119.292 36.5986C120.114 38.8553 117.173 40.736 117.173 40.736L106.557 42.5743Z" fill="#313233"/>
<path fill-rule="evenodd" clip-rule="evenodd" d="M105.713 39.794L106.562 42.5793C110.759 43.4328 114.579 42.6993 117.177 40.7397L115.928 35.1477L109.224 38.3268L105.713 39.794Z" fill="white"/>
<path fill-rule="evenodd" clip-rule="evenodd" d="M105.613 39.5565C105.494 39.6073 105.431 39.7423 105.467 39.869L106.317 42.6543C106.345 42.7446 106.417 42.8129 106.512 42.8319C110.791 43.7018 114.679 42.9432 117.333 40.945C117.41 40.8846 117.451 40.7819 117.427 40.6839L116.178 35.0919C116.169 35.054 116.152 35.0185 116.128 34.9881C116.104 34.9577 116.073 34.9333 116.038 34.9165C116.003 34.8997 115.965 34.8909 115.926 34.8906C115.888 34.8904 115.85 34.8988 115.815 34.9152L109.12 38.0916L105.613 39.5565ZM106.026 39.9416L109.324 38.5644C109.329 38.5626 109.334 38.5613 109.337 38.5595L115.747 35.5183L116.886 40.6325C114.375 42.4567 110.75 43.133 106.762 42.3572L106.026 39.9416Z" fill="#181214"/>
<path fill-rule="evenodd" clip-rule="evenodd" d="M99.9239 31.06C99.9239 31.06 100.995 35.0068 101.454 36.2469C101.909 37.4869 104.216 40.5593 108.912 40.6583C113.609 40.7568 116.444 36.0856 116.598 33.9049C116.598 33.9049 119.873 34.494 120.677 31.4294C121.204 29.4366 118.646 26.9015 116.076 28.7711L111.965 23.2355L103.675 21.2209L98.5195 26.029L99.9239 31.06Z" fill="white"/>
<path fill-rule="evenodd" clip-rule="evenodd" d="M99.6733 31.1283C99.692 31.1964 100.755 35.1014 101.213 36.3359C101.686 37.6173 104.057 40.8133 108.908 40.9155C111.82 40.9769 114.046 39.2703 115.39 37.4029C116.203 36.2697 116.694 35.0778 116.826 34.1903C117.666 34.2579 120.209 34.2266 120.927 31.4948C121.104 30.8343 120.977 30.1185 120.628 29.4975C119.86 28.1231 118.02 27.2078 116.135 28.4192L112.17 23.0826C112.133 23.034 112.083 22.9999 112.025 22.9857L103.735 20.9712C103.694 20.9613 103.65 20.9618 103.609 20.9726C103.568 20.9834 103.53 21.0042 103.499 21.0331L98.3423 25.8406C98.2702 25.9064 98.2428 26.0055 98.2702 26.0981L99.6733 31.1283ZM100.169 30.9924V30.9911L98.8058 26.1104L103.749 21.5041L111.811 23.4641L115.866 28.9248C115.953 29.0384 116.113 29.0624 116.226 28.9798C117.87 27.7851 119.511 28.5523 120.178 29.7488C120.459 30.2516 120.573 30.8289 120.431 31.364C119.682 34.2043 116.643 33.652 116.643 33.652C116.576 33.6388 116.498 33.657 116.444 33.702C116.415 33.7237 116.391 33.7515 116.374 33.7834C116.356 33.8153 116.346 33.8506 116.344 33.8868C116.285 34.7253 115.803 35.9439 114.973 37.1023C113.714 38.8484 111.643 40.4581 108.918 40.4008C104.38 40.3055 102.135 37.3566 101.695 36.158C101.241 34.9228 100.169 30.9924 100.169 30.9924Z" fill="#181214"/>
<path fill-rule="evenodd" clip-rule="evenodd" d="M99.5818 29.7906L99.9821 31.2891C99.9821 31.2891 96.384 29.4999 97.121 23.5799C97.8568 17.66 106.355 11.8023 113.55 15.779C113.55 15.779 121.917 16.2836 119.087 28.3752C119.087 28.3752 117.778 27.4867 116.043 28.7754C116.043 28.7754 116.011 30.1309 115.843 31.0165C115.833 31.0574 115.811 31.0949 115.782 31.1254C115.753 31.1558 115.716 31.1783 115.676 31.1905C115.593 31.2146 115.503 31.1941 115.439 31.1356C115.14 30.7903 114.649 30.1122 114.144 28.923C114.144 28.923 110.71 29.4808 107.74 25.5867C104.77 21.693 103.13 23.3741 102.607 25.0235C102.607 25.0235 99.7546 24.0877 99.7509 26.8213C99.7509 27.9482 100.168 28.2435 99.5818 29.7906ZM116.93 31.8026C116.93 31.8026 117.915 30.9069 119.423 30.0675C119.546 29.9985 119.592 29.8413 119.523 29.7172C119.45 29.5933 119.296 29.5488 119.169 29.6178C117.606 30.4899 116.584 31.422 116.584 31.422C116.534 31.4679 116.503 31.5319 116.5 31.5999C116.497 31.668 116.521 31.7346 116.567 31.7851C116.612 31.8355 116.676 31.8657 116.744 31.869C116.812 31.8723 116.879 31.8484 116.93 31.8026Z" fill="#181214"/>
<path fill-rule="evenodd" clip-rule="evenodd" d="M117.611 31.0396L118.583 31.8231C118.693 31.9121 118.855 31.8948 118.942 31.7845C119.033 31.6741 119.014 31.5119 118.906 31.4224L117.933 30.6394C117.825 30.5499 117.661 30.5672 117.57 30.678C117.484 30.7883 117.498 30.9505 117.611 31.0396ZM100.822 30.3758C100.822 30.3758 102.026 28.4093 103.826 29.6891C103.944 29.7711 104.103 29.7443 104.185 29.6286C104.267 29.513 104.243 29.351 104.125 29.2691C101.889 27.6772 100.379 30.106 100.379 30.106C100.362 30.1349 100.35 30.1671 100.345 30.2006C100.34 30.2341 100.341 30.2683 100.349 30.3012C100.358 30.334 100.372 30.365 100.393 30.3921C100.413 30.4193 100.438 30.4422 100.467 30.4595C100.585 30.5345 100.741 30.4975 100.822 30.3758ZM107.977 28.2145C107.977 28.2145 108.638 27.6616 109.457 27.6383C109.597 27.6347 109.709 27.5158 109.708 27.3743C109.699 27.2318 109.584 27.1197 109.443 27.1242C108.454 27.1522 107.645 27.817 107.645 27.817C107.537 27.9074 107.521 28.0702 107.615 28.18C107.702 28.2888 107.861 28.3039 107.977 28.2145Z" fill="#181214"/>
<path d="M109.023 31.4105C109.39 31.4105 109.688 31.1127 109.688 30.7453C109.685 30.5711 109.613 30.405 109.489 30.283C109.364 30.1609 109.197 30.0925 109.023 30.0925C108.848 30.0925 108.681 30.1609 108.556 30.283C108.432 30.405 108.36 30.5711 108.357 30.7453C108.357 31.1127 108.655 31.4105 109.023 31.4105ZM102.854 32.4628C103.22 32.4628 103.519 32.165 103.519 31.7977C103.515 31.6234 103.444 31.4574 103.319 31.3353C103.195 31.2132 103.027 31.1448 102.853 31.1448C102.679 31.1448 102.511 31.2132 102.387 31.3353C102.262 31.4574 102.191 31.6234 102.188 31.7977C102.188 32.165 102.486 32.4628 102.854 32.4628Z" fill="#181214"/>
<path fill-rule="evenodd" clip-rule="evenodd" d="M105.733 32.3433L105.404 34.434C105.385 34.5754 105.477 34.7061 105.617 34.728C105.756 34.7497 105.889 34.6544 105.916 34.5153L106.245 32.4246C106.255 32.356 106.237 32.2864 106.196 32.2309C106.155 32.1754 106.093 32.1386 106.024 32.1286C105.886 32.1067 105.761 32.2041 105.733 32.3433ZM106.452 37.3951C107.565 37.6934 108.71 37.0321 109.008 35.9179C109.047 35.7745 108.965 35.6349 108.828 35.5982C108.69 35.5613 108.55 35.6412 108.511 35.7847C108.287 36.6203 107.424 37.122 106.585 36.8972C106.448 36.8603 106.306 36.9401 106.27 37.0751C106.234 37.2102 106.314 37.3582 106.452 37.3951ZM106.581 42.3243C106.581 42.3243 105.643 42.2255 104.469 41.435C104.441 41.4158 104.409 41.4024 104.376 41.3957C104.343 41.3889 104.308 41.3891 104.275 41.396C104.241 41.4029 104.21 41.4165 104.182 41.4359C104.154 41.4553 104.13 41.4802 104.111 41.5091C104.031 41.6264 104.062 41.7869 104.179 41.8611C105.489 42.7442 106.533 42.837 106.533 42.837C106.6 42.8433 106.668 42.823 106.721 42.7803C106.774 42.7376 106.808 42.6759 106.816 42.6084C106.828 42.4663 106.724 42.3366 106.581 42.3243ZM117.309 40.959C117.309 40.959 118.767 40.0142 119.285 38.779C119.299 38.7475 119.306 38.7136 119.306 38.6792C119.306 38.6449 119.3 38.6109 119.286 38.5792C119.273 38.5476 119.254 38.5189 119.229 38.4948C119.205 38.4708 119.176 38.452 119.144 38.4394C119.015 38.3838 118.865 38.4453 118.811 38.5812C118.347 39.6867 117.031 40.5266 117.031 40.5266C116.914 40.6008 116.877 40.7615 116.958 40.8788C117.031 41.0024 117.192 41.0331 117.309 40.959ZM125.375 61.7949C125.375 61.7949 122.619 53.2027 122.181 51.944C122.086 51.6567 122.236 51.3489 122.517 51.2532C122.755 51.171 123.015 51.2942 123.105 51.5336C123.577 52.8128 126.381 61.514 126.381 61.514L126.148 62.3629L125.375 61.7949Z" fill="#181214"/>
<path fill-rule="evenodd" clip-rule="evenodd" d="M116.936 57.8949C116.936 57.8949 121.088 55.5223 121.998 55.4123C122.907 55.3098 124.864 56.2543 125.219 56.4457C125.582 56.6433 125.875 57.4301 126.765 58.4355C127.025 58.7301 126.662 59.6535 125.643 59.2223C125.643 59.2223 125.93 60.0574 125.547 60.5359C125.547 60.5359 125.821 61.1039 125.342 61.5688H123.372C123.372 61.5688 122.011 62.9918 119.48 63.0055L117.941 60.5359L116.936 57.8949Z" fill="white"/>
<path fill-rule="evenodd" clip-rule="evenodd" d="M116.81 57.6698C116.701 57.7382 116.653 57.8674 116.694 57.9843L117.7 60.6315C117.706 60.6452 117.713 60.6589 117.72 60.6725L119.26 63.1359C119.307 63.2104 119.389 63.2589 119.478 63.2589C121.763 63.2515 123.131 62.1366 123.473 61.8222H125.341C125.409 61.8222 125.47 61.7948 125.519 61.7538C125.964 61.3151 125.901 60.8167 125.833 60.5768C125.956 60.3581 126.005 60.1046 126.005 59.8659C126.005 59.7702 125.997 59.6733 125.983 59.5851C126.223 59.6124 126.428 59.5714 126.585 59.4956C126.86 59.3588 127.024 59.1128 127.078 58.8804C127.139 58.6405 127.085 58.4081 126.962 58.2651C126.435 57.676 126.12 57.1565 125.874 56.8011C125.683 56.514 125.511 56.3151 125.347 56.2194C125.087 56.0827 124.027 55.5632 123.09 55.3095C122.666 55.1865 122.262 55.1248 121.962 55.159C121.674 55.1932 121.079 55.4327 120.388 55.7683C118.848 56.5065 116.81 57.6698 116.81 57.6698ZM117.255 58.0116C117.795 57.7034 119.369 56.8284 120.614 56.2331C121.236 55.9323 121.763 55.6999 122.022 55.6726C122.358 55.6315 122.85 55.7546 123.336 55.9186C124.115 56.1846 124.89 56.5612 125.095 56.6706C125.21 56.7389 125.313 56.8893 125.45 57.0882C125.703 57.4573 126.032 57.9917 126.571 58.6069C126.585 58.6268 126.585 58.6479 126.585 58.6753C126.592 58.73 126.571 58.7909 126.544 58.8468C126.442 59.0519 126.169 59.1674 125.745 58.9835C125.697 58.9663 125.646 58.9624 125.597 58.972C125.547 58.9816 125.501 59.0045 125.464 59.0382C125.388 59.1066 125.368 59.2085 125.396 59.3042C125.396 59.3042 125.484 59.5714 125.484 59.8659C125.484 60.0437 125.464 60.2351 125.347 60.378C125.286 60.4538 125.272 60.5632 125.314 60.6527C125.314 60.6527 125.478 60.9944 125.231 61.3089H123.37C123.295 61.3089 123.227 61.3362 123.18 61.3909C123.18 61.3909 121.934 62.6835 119.621 62.7456L118.171 60.4265L117.255 58.0116Z" fill="#181214"/>
<path fill-rule="evenodd" clip-rule="evenodd" d="M125.409 57.8886L123.617 57.0882C123.487 57.0261 123.336 57.0882 123.282 57.2187C123.221 57.348 123.282 57.4984 123.412 57.5605L125.204 58.3534C125.333 58.4156 125.485 58.3534 125.54 58.2242C125.554 58.1937 125.562 58.1606 125.563 58.127C125.564 58.0933 125.559 58.0598 125.546 58.0284C125.534 57.9971 125.516 57.9685 125.492 57.9444C125.469 57.9204 125.44 57.9014 125.409 57.8886ZM125.597 58.9513L123.446 58.5958C123.304 58.5772 123.173 58.6741 123.153 58.8108C123.125 58.955 123.221 59.083 123.362 59.1079L125.512 59.4571C125.648 59.4832 125.785 59.385 125.806 59.2421C125.827 59.1054 125.731 58.9699 125.597 58.9513ZM125.427 60.306L123.598 59.9692C123.459 59.9406 123.327 60.0338 123.301 60.1767C123.274 60.3147 123.366 60.4464 123.505 60.4762L125.333 60.8131C125.473 60.8354 125.611 60.7422 125.637 60.6055C125.658 60.4613 125.566 60.3283 125.427 60.306Z" fill="#181214"/>
<path fill-rule="evenodd" clip-rule="evenodd" d="M94.3585 47.9832C94.3585 47.9832 96.7249 50.1517 97.5253 52.8538C98.3257 55.5495 98.5867 62.9917 98.5867 62.9917C98.5867 62.9917 107.171 59.544 110.168 58.7026C113.17 57.8537 114.408 58.5038 114.408 58.5038C114.408 58.5038 116.187 57.246 117.083 57.6698C117.883 58.0526 119.163 60.419 119.519 62.8003C119.587 63.3198 119.402 63.8468 119.019 64.2097C118.533 64.6745 117.836 65.3171 117.275 65.6874C117.275 65.6874 117.008 66.9937 115.25 68.0737C113.492 69.1625 100.153 77.6312 91.4577 75.4898C88.2698 74.7031 87.1003 68.8816 89.0776 59.6882C91.055 50.5006 92.9566 48.5784 94.3585 47.9832Z" fill="white"/>
<path fill-rule="evenodd" clip-rule="evenodd" d="M94.5315 47.7918C94.4557 47.7233 94.3537 47.7097 94.2581 47.7438C93.526 48.0585 92.6498 48.7084 91.7065 50.4939C90.8029 52.2109 89.8248 55.0087 88.8256 59.6398C87.6287 65.2078 87.5815 69.5515 88.4291 72.3094C89.0182 74.2383 90.0435 75.4004 91.3982 75.7359C94.9217 76.6047 99.1971 75.7633 103.172 74.3614C109.082 72.2672 114.329 68.95 115.389 68.2937C116.949 67.3293 117.394 66.1933 117.503 65.8441C118.056 65.4613 118.727 64.8461 119.198 64.3937C119.643 63.9773 119.856 63.3683 119.774 62.7656V62.7593C119.52 61.0492 118.796 59.3527 118.111 58.3534C117.79 57.8824 117.462 57.5667 117.195 57.4374C116.88 57.2871 116.469 57.3007 116.045 57.4163C115.368 57.594 114.657 58.0328 114.384 58.2105C113.966 58.0601 112.632 57.7382 110.101 58.4566C107.453 59.2023 100.449 61.9726 98.8342 62.6226C98.7659 61.0827 98.4713 55.1387 97.7741 52.7786C96.9526 50.015 94.5315 47.7918 94.5315 47.7918ZM94.3053 48.2912C94.7987 48.7631 96.6045 50.6512 97.2819 52.9223C98.0748 55.6042 98.3346 63.0054 98.3346 63.0054C98.3346 63.0874 98.3756 63.1633 98.4514 63.2105C98.5198 63.2515 98.608 63.2652 98.6838 63.2316C98.6838 63.2316 107.248 59.7902 110.245 58.9488C113.111 58.1421 114.294 58.73 114.294 58.73C114.376 58.771 114.479 58.7648 114.561 58.7101C114.561 58.7101 115.176 58.2789 115.846 58.0191C116.25 57.8687 116.668 57.7581 116.976 57.9023C117.187 58.0054 117.427 58.2714 117.687 58.6405C118.337 59.5925 119.021 61.2132 119.26 62.8339C119.323 63.2726 119.171 63.7163 118.843 64.0183C118.371 64.4832 117.681 65.1058 117.133 65.4675C117.078 65.5098 117.037 65.5644 117.023 65.6328C117.023 65.6328 116.757 66.8433 115.116 67.855C114.068 68.505 108.863 71.8023 103 73.8754C99.1213 75.2438 94.9553 76.0852 91.5213 75.2363C90.317 74.943 89.442 73.8679 88.9225 72.1578C88.0947 69.4558 88.1557 65.2015 89.3252 59.7429C90.3108 55.1865 91.2678 52.4229 92.1651 50.7333C92.9506 49.2351 93.6764 48.599 94.3053 48.2912Z" fill="#181214"/>
<path fill-rule="evenodd" clip-rule="evenodd" d="M98.652 62.6673C98.652 62.6673 94.8787 64.0319 93.0318 69.0108C92.9821 69.1463 93.0505 69.2942 93.1859 69.3439C93.3164 69.3936 93.4643 69.3252 93.5128 69.1898C95.2615 64.4644 98.8248 63.1495 98.8248 63.1495C98.9602 63.0998 99.0286 62.9519 98.9789 62.8152C98.9304 62.6859 98.7813 62.6176 98.652 62.6673ZM114.549 60.0126C114.549 60.0126 115.97 61.8594 116.594 64.4098C116.624 64.5514 116.767 64.6322 116.902 64.6012C117.037 64.5639 117.124 64.4284 117.093 64.2917C116.445 61.6307 114.957 59.7031 114.957 59.7031C114.87 59.5863 114.71 59.5676 114.599 59.6546C114.487 59.7404 114.462 59.9007 114.549 60.0126Z" fill="#181214"/>
</g>
<defs>
<clipPath id="clip0_4550_28778">
<rect width="159" height="113" fill="white" transform="translate(0 0.5)"/>
</clipPath>
</defs>
</svg>
